<svg width="650" height="130" xmlns="http://www.w3.org/2000/svg">

 <g>
  <title>background</title>
  <rect fill="none" id="canvas_background" height="132" width="652" y="-1" x="-1"/>
 </g>
 <g>
  <title>Layer 1</title>
  <g id="svg_1">
   <g id="svg_2">
    <g id="svg_3">
     <g id="svg_4">
      <path id="svg_5" d="m19.666992,79.928486l0,5.245c3.681,6.944 8.582,13.265 14.59,18.686c3.384,3.054 7.016,5.731 10.844,8.014l0,-49.111c-23.905,17.1 -24.736,17.395 -25.287,17.587l-0.147,-0.421z" fill="#19AA89"/>
      <path id="svg_6" d="m45.100992,40.276486l-25.434,0l0,31.914c5.267,-3.64 17.045,-12.028 25.434,-18.036l0,-13.878z" fill="#19AA89"/>
      <polygon id="svg_7" points="76.77296447753906,20.475505828857422 51.33899688720703,20.475505828857422 51.33899688720703,53.94047546386719 76.77296447753906,77.80047225952148 " fill="#19AA89"/>
      <path id="svg_8" d="m51.338992,115.156486c7.944,3.676 16.549,5.782 25.434,6.173l0,-33.932l-25.434,-23.859l0,51.618z" fill="#19AA89"/>
      <path id="svg_9" d="m83.010992,121.318486c0.125,-0.006 0.25,-0.004 0.376,-0.01c8.813,-0.451 17.279,-2.568 25.058,-6.155l0,-48.128l-25.434,20.57l0,33.723z" fill="#19AA89"/>
      <polygon id="svg_10" points="108.44502258300781,40.27647399902344 83.01100158691406,40.27647399902344 83.01100158691406,78.5935173034668 108.44502258300781,58.023468017578125 " fill="#19AA89"/>
      <path id="svg_11" d="m114.682992,61.978486l0,49.897c5.805,-3.456 11.125,-7.797 15.781,-12.956c3.817,-4.23 7.046,-8.847 9.652,-13.751l0,-43.76l-25.433,20.57z" fill="#19AA89"/>
      <polygon id="svg_12" points="140.11598205566406,8.670513153076172 114.68299865722656,8.670513153076172 114.68299865722656,52.97747039794922 140.11598205566406,32.40751647949219 " fill="#19AA89"/>
     </g>
    </g>
   </g>
   <g id="svg_13">
    <g id="svg_14">
     <path id="svg_15" d="m176.172992,76.301486l-12.363,0l0,12.862l-8.242,0l0,-43.707c6.868,0 13.736,-0.063 20.605,-0.063c21.354,0 21.417,30.908 0,30.908zm-12.363,-7.556l12.363,0c10.552,0 10.49,-15.484 0,-15.484l-12.363,0l0,15.484z" fill="#212C3C"/>
     <path id="svg_16" d="m220.315992,58.381486l7.305,0l0,30.782l-7.18,0l-0.375,-4.495c-1.749,3.621 -6.556,5.369 -9.99,5.432c-9.116,0.063 -15.86,-5.557 -15.86,-16.359c0,-10.614 7.056,-16.171 16.047,-16.108c4.121,0 8.055,1.936 9.803,4.995l0.25,-4.247zm-18.482,15.359c0,5.87 4.059,9.366 9.116,9.366c11.988,0 11.988,-18.669 0,-18.669c-5.058,0 -9.116,3.434 -9.116,9.303z" fill="#212C3C"/>
     <path id="svg_17" d="m242.354992,49.701486c0,5.933 -8.991,5.933 -8.991,0c0,-5.932 8.991,-5.932 8.991,0zm-8.304,8.555l0,30.907l7.618,0l0,-30.907l-7.618,0z" fill="#212C3C"/>
     <path id="svg_18" d="m271.200992,89.163486l0,-16.109c0,-4.683 -2.56,-8.242 -7.431,-8.242c-4.683,0 -7.867,3.934 -7.867,8.617l0,15.734l-7.555,0l0,-30.845l6.806,0l0.5,4.184c3.122,-3.06 6.244,-4.621 10.115,-4.621c7.243,0 13.05,5.433 13.05,15.11l0,16.172l-7.618,0z" fill="#212C3C"/>
     <path id="svg_19" d="m291.866992,76.488486c0.5,3.809 3.809,6.556 9.179,6.556c2.81,0 6.494,-1.062 8.242,-2.872l4.87,4.808c-3.247,3.372 -8.554,4.995 -13.237,4.995c-10.615,0 -16.921,-6.556 -16.921,-16.421c0,-9.366 6.369,-16.109 16.359,-16.109c10.302,0 16.734,6.368 15.547,19.044l-24.039,0l0,-0.001zm16.733,-6.306c-0.499,-3.996 -3.621,-5.994 -7.992,-5.994c-4.121,0 -7.492,1.998 -8.616,5.994l16.608,0z" fill="#212C3C"/>
     <path id="svg_20" d="m329.328992,45.518486l0,43.645l-7.555,0l0,-43.645l7.555,0z" fill="#212C3C"/>
     <path id="svg_21" d="m349.245992,89.163486l0,-43.707l8.179,0l0,43.707l-8.179,0z" fill="#212C3C"/>
     <path id="svg_22" d="m387.269992,89.163486l0,-16.109c0,-4.683 -2.561,-8.242 -7.431,-8.242c-4.683,0 -7.868,3.934 -7.868,8.617l0,15.734l-7.555,0l0,-30.845l6.806,0l0.5,4.184c3.122,-3.06 6.243,-4.621 10.115,-4.621c7.243,0 13.05,5.433 13.05,15.11l0,16.172l-7.617,0z" fill="#212C3C"/>
     <path id="svg_23" d="m410.870992,49.701486l0,8.742l8.491,0l0,6.556l-8.554,0l0,13.3c0,2.935 1.623,4.371 3.996,4.371c1.187,0 2.56,-0.375 3.684,-0.938l2.123,6.494c-2.186,0.874 -3.996,1.249 -6.306,1.312c-6.682,0.249 -11.053,-3.56 -11.053,-11.239l0,-13.3l-5.744,0l0,-6.556l5.744,0l0,-7.93l7.619,-0.812z" fill="#212C3C"/>
     <path id="svg_24" d="m431.535992,76.488486c0.5,3.809 3.809,6.556 9.179,6.556c2.81,0 6.493,-1.062 8.241,-2.872l4.871,4.808c-3.247,3.372 -8.555,4.995 -13.237,4.995c-10.614,0 -16.921,-6.556 -16.921,-16.421c0,-9.366 6.369,-16.109 16.359,-16.109c10.302,0 16.733,6.368 15.547,19.044l-24.039,0l0,-0.001zm16.733,-6.306c-0.499,-3.996 -3.621,-5.994 -7.992,-5.994c-4.12,0 -7.492,1.998 -8.616,5.994l16.608,0z" fill="#212C3C"/>
     <path id="svg_25" d="m485.605992,55.259486l5.619,4.246l-3.434,4.37c2.373,2.686 3.247,5.745 3.247,9.116c0,3.809 -1.437,9.179 -6.493,11.489c5.119,2.56 6.368,6.243 6.368,10.178c0,8.491 -6.493,13.736 -15.423,13.736c-8.928,0 -15.609,-5.433 -15.609,-13.736l7.555,0c0,3.996 3.685,6.618 8.055,6.618c4.371,0 7.805,-2.373 7.805,-6.618c0,-4.246 -3.996,-6.182 -7.805,-6.182c-9.615,0 -15.609,-5.869 -15.609,-15.485c0,-9.615 6.993,-15.609 15.609,-15.609c2.436,0 4.934,0.312 7.057,1.748l3.058,-3.871zm-18.17,17.732c0,5.37 3.622,8.555 8.055,8.555c4.371,0 7.992,-3.247 7.992,-8.555s-3.621,-8.679 -7.992,-8.679c-4.433,0 -8.055,3.31 -8.055,8.679z" fill="#212C3C"/>
     <path id="svg_26" d="m502.962992,58.381486l0.562,3.559c2.373,-3.809 5.558,-4.37 8.68,-4.37c3.184,0 6.244,1.248 7.93,2.935l-3.435,6.618c-1.561,-1.312 -2.997,-1.998 -5.495,-1.998c-3.996,0 -7.68,2.123 -7.68,7.805l0,16.234l-7.617,0l0,-30.782l7.055,0l0,-0.001z" fill="#212C3C"/>
     <path id="svg_27" d="m547.416992,58.381486l7.306,0l0,30.782l-7.181,0l-0.374,-4.495c-1.749,3.621 -6.556,5.369 -9.99,5.432c-9.116,0.063 -15.86,-5.557 -15.86,-16.359c0,-10.614 7.057,-16.171 16.047,-16.108c4.121,0 8.055,1.936 9.804,4.995l0.248,-4.247zm-18.482,15.359c0,5.87 4.059,9.366 9.116,9.366c11.988,0 11.988,-18.669 0,-18.669c-5.057,0 -9.116,3.434 -9.116,9.303z" fill="#212C3C"/>
     <path id="svg_28" d="m593.120992,45.518486l0,43.645l-7.118,0l-0.5,-4.246c-2.372,3.685 -6.181,4.933 -9.928,4.933c-9.053,0 -15.859,-5.994 -15.859,-16.109c0,-10.614 6.682,-16.108 15.673,-16.108c3.247,0 8.304,1.748 10.114,4.933l0,-17.046l7.618,0l0,-0.002zm-25.787,28.222c0,5.37 3.871,9.054 8.741,9.054c4.808,0 8.929,-3.496 8.929,-9.054c0,-5.369 -4.121,-8.991 -8.929,-8.991c-4.87,0 -8.741,3.435 -8.741,8.991z" fill="#212C3C"/>
     <path id="svg_29" d="m630.332992,73.803486c0,8.867 -6.057,16.047 -16.047,16.047s-15.984,-7.18 -15.984,-16.047c0,-8.804 6.119,-16.047 15.922,-16.047s16.109,7.243 16.109,16.047zm-24.413,0c0,4.684 2.81,9.054 8.366,9.054c5.558,0 8.367,-4.37 8.367,-9.054c0,-4.62 -3.246,-9.115 -8.367,-9.115c-5.494,-0.001 -8.366,4.495 -8.366,9.115z" fill="#212C3C"/>
    </g>
   </g>
  </g>
 </g>
</svg>