<svg width="130" height="130" xmlns="http://www.w3.org/2000/svg">

 <g>
  <title>background</title>
  <rect fill="none" id="canvas_background" height="132" width="132" y="-1" x="-1"/>
 </g>
 <g>
  <title>Layer 1</title>
  <g id="svg_1">
   <g id="svg_2">
    <g id="svg_3">
     <g id="svg_4">
      <path id="svg_5" d="m4.775501,79.928486l0,5.245c3.681,6.944 8.582,13.265 14.59,18.686c3.384,3.054 7.016,5.731 10.844,8.014l0,-49.111c-23.905,17.1 -24.736,17.395 -25.287,17.587l-0.147,-0.421z" fill="#19AA89"/>
      <path id="svg_6" d="m30.209501,40.276486l-25.434,0l0,31.914c5.267,-3.64 17.045,-12.028 25.434,-18.036l0,-13.878z" fill="#19AA89"/>
      <polygon id="svg_7" points="61.881473541259766,20.475505828857422 36.447505950927734,20.475505828857422 36.447505950927734,53.94047546386719 61.881473541259766,77.80047607421875 " fill="#19AA89"/>
      <path id="svg_8" d="m36.447501,115.156486c7.944,3.676 16.549,5.782 25.434,6.173l0,-33.932l-25.434,-23.859l0,51.618z" fill="#19AA89"/>
      <path id="svg_9" d="m68.119501,121.318486c0.125,-0.006 0.25,-0.004 0.376,-0.01c8.813,-0.451 17.279,-2.568 25.058,-6.155l0,-48.128l-25.434,20.57l0,33.723z" fill="#19AA89"/>
      <polygon id="svg_10" points="93.55353164672852,40.27647399902344 68.11951065063477,40.27647399902344 68.11951065063477,78.59352111816406 93.55353164672852,58.023468017578125 " fill="#19AA89"/>
      <path id="svg_11" d="m99.791501,61.978486l0,49.897c5.805,-3.456 11.125,-7.797 15.781,-12.956c3.817,-4.23 7.046,-8.847 9.652,-13.751l0,-43.76l-25.433,20.57z" fill="#19AA89"/>
      <polygon id="svg_12" points="125.22449111938477,8.670513153076172 99.79150772094727,8.670513153076172 99.79150772094727,52.97747039794922 125.22449111938477,32.40751647949219 " fill="#19AA89"/>
     </g>
    </g>
   </g>
  </g>
 </g>
</svg>